<?xml version="1.0" encoding="UTF-8" standalone="no"?>
<svg
   id="svg3783"
   height="128"
   width="128"
   version="1.0"
   sodipodi:docname="com.github.gabutakut.gabutytb.svg"
   inkscape:version="1.4.3 (1:1.4.3+202512261035+0d15f75042)"
   xmlns:inkscape="http://www.inkscape.org/namespaces/inkscape"
   xmlns:sodipodi="http://sodipodi.sourceforge.net/DTD/sodipodi-0.dtd"
   xmlns:xlink="http://www.w3.org/1999/xlink"
   xmlns="http://www.w3.org/2000/svg"
   xmlns:svg="http://www.w3.org/2000/svg"
   xmlns:rdf="http://www.w3.org/1999/02/22-rdf-syntax-ns#"
   xmlns:cc="http://creativecommons.org/ns#"
   xmlns:dc="http://purl.org/dc/elements/1.1/">
  <sodipodi:namedview
     id="namedview56"
     pagecolor="#ffffff"
     bordercolor="#666666"
     borderopacity="1.0"
     inkscape:pageshadow="2"
     inkscape:pageopacity="0.0"
     inkscape:pagecheckerboard="0"
     showgrid="false"
     width="128px"
     inkscape:zoom="2.4432575"
     inkscape:cx="22.306286"
     inkscape:cy="71.625688"
     inkscape:window-width="1366"
     inkscape:window-height="705"
     inkscape:window-x="0"
     inkscape:window-y="0"
     inkscape:window-maximized="1"
     inkscape:current-layer="svg3783"
     inkscape:showpageshadow="2"
     inkscape:deskcolor="#d1d1d1" />
  <metadata
     id="metadata43">
    <rdf:RDF>
      <cc:Work
         rdf:about="">
        <dc:format>image/svg+xml</dc:format>
        <dc:type
           rdf:resource="http://purl.org/dc/dcmitype/StillImage" />
      </cc:Work>
    </rdf:RDF>
  </metadata>
  <defs
     id="defs3785">
    <linearGradient
       id="linearGradient4345">
      <stop
         offset="0"
         style="stop-color:#ffffff;stop-opacity:1"
         id="stop4347" />
      <stop
         offset="0.28695652"
         style="stop-color:#ffffff;stop-opacity:0.04575163"
         id="stop4349" />
      <stop
         offset="1"
         style="stop-color:#ffffff;stop-opacity:0"
         id="stop4353" />
    </linearGradient>
    <linearGradient
       id="linearGradient4327">
      <stop
         id="stop4329"
         style="stop-color:#ffffff;stop-opacity:0"
         offset="0" />
      <stop
         offset="0.02222222"
         style="stop-color:#ffffff;stop-opacity:0"
         id="stop4335" />
      <stop
         offset="0.06666667"
         style="stop-color:#ffffff;stop-opacity:0.92941176;"
         id="stop4333" />
      <stop
         id="stop4339"
         style="stop-color:#ffffff;stop-opacity:0.29411766"
         offset="0.12083333" />
      <stop
         id="stop4337"
         style="stop-color:#ffffff;stop-opacity:0.16993465"
         offset="0.93478262" />
      <stop
         id="stop4331"
         style="stop-color:#ffffff;stop-opacity:1"
         offset="1" />
    </linearGradient>
    <linearGradient
       id="linearGradient3702">
      <stop
         offset="0"
         style="stop-color:#000000;stop-opacity:0"
         id="stop3704" />
      <stop
         offset="0.5"
         style="stop-color:#000000;stop-opacity:1"
         id="stop3710" />
      <stop
         offset="1"
         style="stop-color:#000000;stop-opacity:0"
         id="stop3706" />
    </linearGradient>
    <linearGradient
       id="linearGradient3688">
      <stop
         offset="0"
         style="stop-color:#000000;stop-opacity:1"
         id="stop3690" />
      <stop
         offset="1"
         style="stop-color:#000000;stop-opacity:0"
         id="stop3692" />
    </linearGradient>
    <radialGradient
       r="2.5"
       fy="43.5"
       fx="4.9929786"
       cy="43.5"
       cx="4.9929786"
       gradientTransform="matrix(2.003784,0,0,1.4,27.98813,-17.4)"
       gradientUnits="userSpaceOnUse"
       id="radialGradient2470"
       xlink:href="#linearGradient3688" />
    <radialGradient
       r="2.5"
       fy="43.5"
       fx="4.9929786"
       cy="43.5"
       cx="4.9929786"
       gradientTransform="matrix(2.003784,0,0,1.4,-20.01187,-104.4)"
       gradientUnits="userSpaceOnUse"
       id="radialGradient2472"
       xlink:href="#linearGradient3688" />
    <linearGradient
       y2="39.999443"
       x2="25.058096"
       y1="47.027729"
       x1="25.058096"
       gradientUnits="userSpaceOnUse"
       id="linearGradient2474"
       xlink:href="#linearGradient3702" />
    <radialGradient
       r="2.5"
       fy="43.5"
       fx="4.9929786"
       cy="43.5"
       cx="4.9929786"
       gradientTransform="matrix(2.003784,0,0,1.4,27.98813,-17.4)"
       gradientUnits="userSpaceOnUse"
       id="radialGradient2476"
       xlink:href="#linearGradient3688" />
    <radialGradient
       r="2.5"
       fy="43.5"
       fx="4.9929786"
       cy="43.5"
       cx="4.9929786"
       gradientTransform="matrix(2.003784,0,0,1.4,-20.01187,-104.4)"
       gradientUnits="userSpaceOnUse"
       id="radialGradient2478"
       xlink:href="#linearGradient3688" />
    <linearGradient
       y2="39.999443"
       x2="25.058096"
       y1="47.027729"
       x1="25.058096"
       gradientUnits="userSpaceOnUse"
       id="linearGradient2480"
       xlink:href="#linearGradient3702" />
    <linearGradient
       id="linearGradient3242-7-3-8-0-4-58-06">
      <stop
         id="stop3244-5-8-5-6-4-3-8"
         style="stop-color:#cdf87e;stop-opacity:1"
         offset="0" />
      <stop
         id="stop3246-9-5-1-5-3-0-7"
         style="stop-color:#a2e34f;stop-opacity:1"
         offset="0.26238" />
      <stop
         id="stop3248-7-2-0-7-5-35-9"
         style="stop-color:#68b723;stop-opacity:1"
         offset="0.66093999" />
      <stop
         id="stop3250-8-2-8-5-6-40-4"
         style="stop-color:#1d7e0d;stop-opacity:1"
         offset="1" />
    </linearGradient>
    <radialGradient
       xlink:href="#linearGradient3242-7-3-8-0-4-58-06"
       id="radialGradient4210"
       cx="10"
       cy="9"
       fx="10"
       fy="9"
       r="30"
       gradientUnits="userSpaceOnUse"
       gradientTransform="matrix(0,2.0858071,-1.9813772,0,23.579764,100.31537)" />
    <linearGradient
       xlink:href="#linearGradient4327"
       id="linearGradient4269"
       x1="26"
       y1="16"
       x2="26"
       y2="62"
       gradientUnits="userSpaceOnUse"
       gradientTransform="matrix(0,-2.0084746,2.0083333,0,-2.6614355,125.26378)" />
    <linearGradient
       xlink:href="#linearGradient4364"
       id="linearGradient4362"
       gradientUnits="userSpaceOnUse"
       gradientTransform="matrix(0,-1.7102305,1.699794,0,43.400229,253.26303)"
       x1="107.05136"
       y1="-23.105574"
       x2="107.05136"
       y2="-5.7774076" />
    <linearGradient
       id="linearGradient4364">
      <stop
         id="stop4366"
         style="stop-color:#ffffff;stop-opacity:1"
         offset="0" />
      <stop
         id="stop4368"
         style="stop-color:#ffffff;stop-opacity:0.23529412"
         offset="0.40000001" />
      <stop
         id="stop4370"
         style="stop-color:#ffffff;stop-opacity:0.15686275"
         offset="0.80000001" />
      <stop
         id="stop4372"
         style="stop-color:#ffffff;stop-opacity:0.39215687"
         offset="1" />
    </linearGradient>
    <linearGradient
       xlink:href="#linearGradient4345"
       id="linearGradient4343"
       gradientUnits="userSpaceOnUse"
       gradientTransform="matrix(0,-1.7102305,1.699794,0,104.57458,189.67689)"
       x1="107.05136"
       y1="-24.93836"
       x2="107.05136"
       y2="-5.7774076" />
    <radialGradient
       gradientTransform="matrix(2.003784,0,0,1.4,27.98813,-17.4)"
       gradientUnits="userSpaceOnUse"
       xlink:href="#linearGradient3688"
       id="radialGradient3176-3-36"
       fy="43.5"
       fx="4.9929786"
       r="2.5"
       cy="43.5"
       cx="4.9929786" />
    <radialGradient
       gradientTransform="matrix(2.003784,0,0,1.4,-20.01187,-104.4)"
       gradientUnits="userSpaceOnUse"
       xlink:href="#linearGradient3688"
       id="radialGradient3178-5-7-3"
       fy="43.5"
       fx="4.9929786"
       r="2.5"
       cy="43.5"
       cx="4.9929786" />
    <linearGradient
       gradientUnits="userSpaceOnUse"
       xlink:href="#linearGradient3702"
       id="linearGradient3180"
       y2="39.999443"
       x2="25.058096"
       y1="47.027729"
       x1="25.058096" />
  </defs>
  <path
     style="opacity:0.2;fill:none;fill-rule:evenodd;stroke:#ffffff;stroke-width:3.13339px;stroke-linecap:round;stroke-linejoin:miter;stroke-opacity:1"
     d="M 23.2222,103.26962 C 39.836458,78.361351 46.406154,45.515071 15.904121,16.649056"
     id="path4355"
     sodipodi:nodetypes="cc" />
  <rect
     x="9.075407"
     y="16.41057"
     width="110.94626"
     height="96.719505"
     rx="12.607529"
     fill="#ff0000"
     id="rect1"
     style="stroke-width:1.66475" />
  <path
     style="color:#bebebe;display:inline;overflow:visible;visibility:visible;opacity:0.15;fill:#000000;fill-opacity:1;fill-rule:nonzero;stroke:#000000;stroke-width:8.89221;stroke-miterlimit:4;stroke-dasharray:none;stroke-opacity:1;marker:none;enable-background:accumulate"
     id="path5137"
     d="m 38.128945,33.252862 c -1.793504,0 -3.237373,1.531875 -3.237373,3.434697 v 61.824585 c 0,1.902816 1.443869,3.434686 3.237373,3.434686 h 53.956204 c 1.793504,0 3.23737,-1.53187 3.23737,-3.434686 V 36.687559 c 0,-1.902822 -1.443865,-3.434697 -3.23737,-3.434697 z m 1.079123,4.579597 h 4.3165 v 4.5796 h -4.3165 z m 10.79124,0 h 30.215478 c 1.195666,0 2.158244,1.02125 2.158244,2.289803 v 22.897987 c 0,1.268549 -0.962578,2.2898 -2.158244,2.2898 H 49.999308 c -1.19567,0 -2.158248,-1.021251 -2.158248,-2.2898 V 40.122262 c 0,-1.268553 0.962578,-2.289803 2.158248,-2.289803 z m 36.690222,0 h 4.316496 v 4.5796 H 86.68953 Z m -47.481462,9.159198 h 4.3165 v 4.579596 h -4.3165 z m 47.481462,0 h 4.316496 v 4.579596 H 86.68953 Z m -47.481462,9.159198 h 4.3165 v 4.579595 h -4.3165 z m 47.481462,0 h 4.316496 V 60.73045 H 86.68953 Z m -47.481462,9.159194 h 4.3165 v 4.579598 h -4.3165 z m 47.481462,0 h 4.316496 v 4.579598 H 86.68953 Z m -36.690222,4.579598 h 30.215478 c 1.195666,0 2.158244,1.02125 2.158244,2.289798 V 95.07744 c 0,1.268545 -0.962578,2.289793 -2.158244,2.289793 H 49.999308 c -1.19567,0 -2.158248,-1.021248 -2.158248,-2.289793 V 72.179445 c 0,-1.268548 0.962578,-2.289798 2.158248,-2.289798 z m -10.79124,4.579602 h 4.3165 v 4.579592 h -4.3165 z m 47.481462,0 h 4.316496 v 4.579592 H 86.68953 Z m -47.481462,9.159196 h 4.3165 v 4.579595 h -4.3165 z m 47.481462,0 h 4.316496 V 88.20804 H 86.68953 Z M 39.208068,92.78764 h 4.3165 v 4.579593 h -4.3165 z m 47.481462,0 h 4.316496 v 4.579593 H 86.68953 Z" />
  <path
     d="m 38.128945,33.252862 c -1.793504,0 -3.237373,1.531875 -3.237373,3.434697 v 61.824585 c 0,1.902816 1.443869,3.434686 3.237373,3.434686 h 53.956204 c 1.793504,0 3.23737,-1.53187 3.23737,-3.434686 V 36.687559 c 0,-1.902822 -1.443865,-3.434697 -3.23737,-3.434697 z m 1.079123,4.579597 h 4.3165 v 4.5796 h -4.3165 z m 10.79124,0 h 30.215478 c 1.195666,0 2.158244,1.02125 2.158244,2.289803 v 22.897987 c 0,1.268549 -0.962578,2.2898 -2.158244,2.2898 H 49.999308 c -1.19567,0 -2.158248,-1.021251 -2.158248,-2.2898 V 40.122262 c 0,-1.268553 0.962578,-2.289803 2.158248,-2.289803 z m 36.690222,0 h 4.316496 v 4.5796 H 86.68953 Z m -47.481462,9.159198 h 4.3165 v 4.579596 h -4.3165 z m 47.481462,0 h 4.316496 v 4.579596 H 86.68953 Z m -47.481462,9.159198 h 4.3165 v 4.579595 h -4.3165 z m 47.481462,0 h 4.316496 V 60.73045 H 86.68953 Z m -47.481462,9.159194 h 4.3165 v 4.579598 h -4.3165 z m 47.481462,0 h 4.316496 v 4.579598 H 86.68953 Z m -36.690222,4.579598 h 30.215478 c 1.195666,0 2.158244,1.02125 2.158244,2.289798 V 95.07744 c 0,1.268545 -0.962578,2.289793 -2.158244,2.289793 H 49.999308 c -1.19567,0 -2.158248,-1.021248 -2.158248,-2.289793 V 72.179445 c 0,-1.268548 0.962578,-2.289798 2.158248,-2.289798 z m -10.79124,4.579602 h 4.3165 v 4.579592 h -4.3165 z m 47.481462,0 h 4.316496 v 4.579592 H 86.68953 Z m -47.481462,9.159196 h 4.3165 v 4.579595 h -4.3165 z m 47.481462,0 h 4.316496 V 88.20804 H 86.68953 Z M 39.208068,92.78764 h 4.3165 v 4.579593 h -4.3165 z m 47.481462,0 h 4.316496 v 4.579593 H 86.68953 Z"
     id="path5115"
     style="color:#bebebe;display:inline;overflow:visible;visibility:visible;opacity:0.3;fill:#000000;fill-opacity:1;fill-rule:nonzero;stroke:none;stroke-width:4.44612;marker:none;enable-background:accumulate" />
  <path
     style="color:#bebebe;display:inline;overflow:visible;visibility:visible;fill:#ffffff;fill-opacity:1;fill-rule:nonzero;stroke:none;stroke-width:4.44612;marker:none;enable-background:accumulate"
     id="rect3032"
     d="m 38.128945,28.67326 c -1.793504,0 -3.237373,1.531878 -3.237373,3.434704 v 61.824575 c 0,1.902823 1.443869,3.434694 3.237373,3.434694 h 53.956204 c 1.793504,0 3.23737,-1.531871 3.23737,-3.434694 V 32.107964 c 0,-1.902826 -1.443865,-3.434704 -3.23737,-3.434704 z m 1.079123,4.579602 h 4.3165 v 4.579597 h -4.3165 z m 10.79124,0 h 30.215478 c 1.195666,0 2.158244,1.021247 2.158244,2.289799 v 22.897992 c 0,1.268551 -0.962578,2.289797 -2.158244,2.289797 H 49.999308 c -1.19567,0 -2.158248,-1.021246 -2.158248,-2.289797 V 35.542661 c 0,-1.268552 0.962578,-2.289799 2.158248,-2.289799 z m 36.690222,0 h 4.316496 v 4.579597 H 86.68953 Z m -47.481462,9.159197 h 4.3165 v 4.579598 h -4.3165 z m 47.481462,0 h 4.316496 v 4.579598 h -4.316495 z m -47.481462,9.159194 h 4.316501 v 4.579602 h -4.316501 z m 47.481463,0 h 4.316496 v 4.579602 H 86.689531 Z M 39.208068,60.73045 h 4.316501 v 4.579599 h -4.316501 z m 47.481463,0 h 4.316496 v 4.579599 h -4.316496 z m -36.690222,4.579599 h 30.215478 c 1.195666,0 2.158244,1.021253 2.158244,2.289801 v 22.897989 c 0,1.268551 -0.962578,2.289801 -2.158244,2.289801 H 49.999308 c -1.19567,0 -2.158247,-1.02125 -2.158247,-2.289801 V 67.59985 c 0,-1.268548 0.962577,-2.289801 2.158248,-2.289801 z m -10.79124,4.579598 h 4.3165 v 4.579602 h -4.3165 z m 47.481462,0 h 4.316496 v 4.579602 h -4.316496 z m -47.481462,9.159194 h 4.3165 v 4.579604 h -4.3165 z m 47.481462,0 h 4.316496 v 4.579604 H 86.689531 Z M 39.208069,88.20804 h 4.3165 v 4.5796 h -4.3165 z m 47.481462,0 h 4.316496 v 4.5796 h -4.316496 z" />
</svg>
